<svg id="Слой_1" data-name="Слой 1" xmlns="http://www.w3.org/2000/svg" viewBox="0 0 279.15 325.5"><defs><style>.cls-1{fill:none;stroke:#fff;stroke-linecap:round;stroke-linejoin:round;stroke-width:18px;}.cls-2{fill:#fff;}</style></defs><path class="cls-1" d="M1270.28,410.53V302a84.42,84.42,0,0,0-84.42-84.42H1062.08a14,14,0,0,0-14,14V492.44a14,14,0,0,0,14,14h145.09" transform="translate(-1039.11 -208.58)"/><path class="cls-2" d="M1149.29,339.51q-31.24,0-62.48,0c-3,0-5.46-.51-6.49-3.76a5.3,5.3,0,0,1,4-6.85,14.15,14.15,0,0,1,2.61-.1h124.57a11.3,11.3,0,0,1,2.61.11c3,.7,4.47,2.58,4.26,5.67-.21,2.89-1.78,4.7-4.69,4.83-4.11.18-8.23.08-12.34.08Z" transform="translate(-1039.11 -208.58)"/><path class="cls-2" d="M1141.09,376.72h53.07c1.12,0,2.25-.07,3.36,0a5.26,5.26,0,0,1,5,5.48c-.27,2.92-1.85,4.84-5,5.12-.75.07-1.5,0-2.24,0h-108c-.63,0-1.25,0-1.87,0-3.5-.22-5.27-2.09-5.16-5.49s1.8-5.12,5.12-5.14c7.85-.06,15.7,0,23.55,0Z" transform="translate(-1039.11 -208.58)"/><path class="cls-2" d="M1125,291.6c-13,0-25.91,0-38.87,0-4.42,0-6.57-2.56-5.76-6.64.68-3.41,3.15-4.05,6.17-4q31.4,0,62.79,0c5,0,10,0,15,0,4.06,0,6.14,1.92,6.14,5.37s-2,5.28-6.17,5.29C1151.17,291.62,1138.09,291.6,1125,291.6Z" transform="translate(-1039.11 -208.58)"/><path class="cls-2" d="M1125.48,435.32c-13.08,0-26.16,0-39.24,0-4.36,0-6.41-2.22-5.92-6.17.45-3.64,2.89-4.52,6.13-4.51,15.45,0,30.9,0,46.34,0q15.51,0,31,0c4.47,0,6.57,1.73,6.61,5.28s-2,5.38-6.45,5.39C1151.15,435.34,1138.32,435.32,1125.48,435.32Z" transform="translate(-1039.11 -208.58)"/><circle class="cls-1" cx="211.13" cy="257.48" r="59.02"/><path class="cls-2" d="M1250.56,480.6c-5-5.13-7.44-12.27-7.29-20.49.07-4.19-.62-8.39-.87-12.59-.21-3.5,1.24-5.46,4-5.6s4.45,1.57,4.73,4.95c.47,5.89,1,11.79,1.31,17.69a12.83,12.83,0,0,0,2.55,7.19c3.12,4.3,6,8.74,9,13.15,1.89,2.81,1.59,5.2-.76,6.81s-4.25,1.09-6.28-1.79S1253.08,484.29,1250.56,480.6Z" transform="translate(-1039.11 -208.58)"/></svg>