<svg id="Слой_1" data-name="Слой 1" xmlns="http://www.w3.org/2000/svg" viewBox="0 0 279.18 325.5"><defs><style>.cls-1{fill:#b6ceff;}.cls-2{fill:none;stroke:#fff;stroke-linecap:round;stroke-linejoin:round;stroke-width:18px;}</style></defs><rect class="cls-1" x="40.97" y="165.43" width="122.47" height="15.99" rx="8"/><rect class="cls-1" x="40.97" y="213.41" width="90.25" height="15.99" rx="8"/><rect class="cls-1" x="40.97" y="69.71" width="90.42" height="15.99" rx="8"/><path class="cls-2" d="M-137.83,192.63V84.1A84.42,84.42,0,0,0-222.25-.32H-346a14,14,0,0,0-14,14V274.54a14,14,0,0,0,14,14h145.09" transform="translate(369.03 9.32)"/><circle class="cls-2" cx="211.16" cy="257.48" r="59.02"/><path class="cls-1" d="M-126,264.19a6.7,6.7,0,0,1-8.77,3.6l-18.35-7.66-9.82-4.1a6.63,6.63,0,0,1-2.13-1.75l-.22-.3a4.76,4.76,0,0,1-.32-.51l-.15-.25a6.46,6.46,0,0,1-.36-.81,3.1,3.1,0,0,1-.13-.4c0-.1-.06-.19-.08-.29a1.27,1.27,0,0,1-.06-.28,2.41,2.41,0,0,1-.07-.37c0-.13,0-.25,0-.38a4,4,0,0,1,0-.6V226.83a6.71,6.71,0,0,1,6.71-6.7,6.73,6.73,0,0,1,4.75,2,6.69,6.69,0,0,1,2,4.74v18.79l24,10h0A6.72,6.72,0,0,1-126,264.19Z" transform="translate(369.03 9.32)"/><path class="cls-1" d="M-149.87,260.82v0l-11.08-4.62a6.09,6.09,0,0,1-.63-.3Z" transform="translate(369.03 9.32)"/><rect class="cls-1" x="40.97" y="120.24" width="138.33" height="15.99" rx="8"/></svg>