<svg id="Слой_1" data-name="Слой 1" xmlns="http://www.w3.org/2000/svg" viewBox="0 0 305.53 288.83"><defs><style>.cls-1{fill:#fff;}.cls-2{fill:#b6ceff;}</style></defs><path class="cls-1" d="M-229.23,314.27c-.3-2.88-.75-5.75-1.29-8.6-11.3-59.14-70.47-93.57-125.79-81.83-19.71,4.19-36.48,13.7-50.63,28-1.32,1.34-2.53,2.37-4.4,2.47a6.66,6.66,0,0,1-1.38-.08,107.28,107.28,0,0,0-51.64,4.38c-44.78,15.16-68.3,54-69.91,98.5a8.71,8.71,0,0,0,5.51,8.57,17.74,17.74,0,0,0,6.64.77h184.86a41.82,41.82,0,0,0,4.48-.14c5.43-.57,8.52-4,8.47-9.48a111.21,111.21,0,0,0-1.85-17.46c-.17-1-.31-1.86-.38-2.51,0,0,0-.06,0-.08s0-.05,0-.07,0-.15,0-.21a4.4,4.4,0,0,1,0-.72c.13-1.48,1.27-1.47,4.76-1.48q41.71,0,83.44,0c6.09,0,9.09-2.78,9.55-8.52,0-.38.05-.77.06-1.18A78.21,78.21,0,0,0-229.23,314.27Zm-118,34.18h-82.32c-27.44,0-54.88-.06-82.32.06-3.33,0-4.1-.6-3.58-4.13,6.68-45.36,48.69-78.23,94.37-73.65a87.15,87.15,0,0,1,77.84,72.87C-342.43,348.39-342.47,348.44-347.23,348.45Zm19.54-30.81c-2.76,0-4.4-.66-5.65-2.83a10.06,10.06,0,0,1-.54-1.09c-10.57-24.49-28.37-41.78-52.77-52.37-.93-.41-1.65-.72-2.17-1l0,0c-.66-.36-1-.65-1-1,0-.55.84-1.22,2.39-2.45a82.28,82.28,0,0,1,42.49-17.73c25.43-2.88,48.13,3.8,68,19.77,17.5,14.07,27.29,32.63,30.65,54.73,0,.22.06.42.08.62a6.54,6.54,0,0,1,0,.88c-.12,1.82-1.27,2.49-3.68,2.47-13.1-.11-26.19-.05-39.28-.05C-302,317.57-314.85,317.47-327.69,317.64Z" transform="translate(534.28 -77.58)"/><path class="cls-1" d="M-265.27,136.57a69.77,69.77,0,0,0-3.59-14.74c-10.56-29.19-40.38-46.73-70.79-43.9-24,2.23-42,13.77-53.51,35-1.36,2.5-2.37,3.37-4.3,2.92a10.91,10.91,0,0,1-2-.75c-46.5-21.48-98.61,11.32-98.74,63.51.09,1.5.09,4.51.5,7.46,5.63,41.25,43.69,64.64,76.86,59.52,23.27-3.6,41.39-14.52,52.42-35.78,1.64-3.15,2.94-3.63,6.13-2.23,13.13,5.74,26.69,8.19,41.09,5.59a68.75,68.75,0,0,0,56.13-60.3A68.12,68.12,0,0,0-265.27,136.57Zm-163.58,91.7c-29.34-.09-51.42-22.32-51.2-51.56.22-28.85,22.42-50.62,51.47-50.48,27.92.14,50.49,23.23,50.35,51.5C-378.37,205.36-401.4,228.35-428.85,228.27Zm50-98.48c-.19-.2-.36-.4-.51-.59a4.68,4.68,0,0,1-1.15-2.53,3.58,3.58,0,0,1,0-1,2,2,0,0,1,0-.24,3.78,3.78,0,0,1,.1-.46,5.67,5.67,0,0,1,.22-.66s0,0,0,0c.09-.23.19-.46.3-.7,8.62-18.75,27.88-30.11,49.32-29,20.78,1.07,43,15.21,48.14,42,.21,1.11.39,2.22.52,3.33a48.33,48.33,0,0,1-.14,12.2c-2.91,21.36-19.57,40.54-41.36,44.26a53.4,53.4,0,0,1-33.75-4.89c-2.37-1.19-4-2.51-4.15-4.82,0-.12,0-.24,0-.36h0a6.33,6.33,0,0,1,.05-.85,3,3,0,0,1,.06-.42c0-.13,0-.26.08-.4a.09.09,0,0,1,0-.05,43.16,43.16,0,0,0,.49-6.48C-360.69,159.83-366.13,143.4-378.85,129.79Z" transform="translate(534.28 -77.58)"/><path class="cls-2" d="M-229.23,314.27c-.3-2.9-.74-5.78-1.29-8.65-11.3-59.14-70.47-93.57-125.79-81.82-19.7,4.18-36.48,13.69-50.63,27.95-1.38,1.39-2.62,2.45-4.62,2.49l.22,0a89.65,89.65,0,0,1,22.49,6.06l0,0,.49.2c-1-.47-1.46-.81-1.48-1.23s.79-1.24,2.39-2.5a82.28,82.28,0,0,1,42.49-17.73c25.44-2.88,48.14,3.81,68,19.77,17.49,14.07,27.29,32.64,30.64,54.73,0,.23.06.46.08.67a6.54,6.54,0,0,1,0,.88c-.14,1.78-1.29,2.44-3.68,2.42-13.1-.1-26.19-.05-39.28-.05-12.84,0-25.69-.09-38.53.08-2.91,0-4.58-.74-5.84-3.2.07.14.13.28.19.42a77,77,0,0,1,6.78,21.86s0,.05,0,.07,0-.19,0-.28a4.4,4.4,0,0,1,0-.72c.11-1.52,1.24-1.52,4.76-1.52h83.44c6.08,0,9.07-2.78,9.55-8.48,0-.38.05-.77.06-1.18A78.21,78.21,0,0,0-229.23,314.27Z" transform="translate(534.28 -77.58)"/><path class="cls-2" d="M-265.27,136.57a69.45,69.45,0,0,0-3.59-14.79c-10.56-29.18-40.38-46.72-70.79-43.9-24,2.23-42,13.77-53.51,35-1.4,2.58-2.44,3.41-4.5,2.86l.2.1a63.53,63.53,0,0,1,18.1,13.39c.18.18.34.36.51.54a5.38,5.38,0,0,1-1.66-3.07,3.58,3.58,0,0,1,0-1,1,1,0,0,1,0-.24,3.78,3.78,0,0,1,.1-.46,5.67,5.67,0,0,1,.22-.66s0,0,0,0c.09-.24.19-.49.31-.75,8.61-18.74,27.87-30.11,49.31-29,20.78,1.07,43,15.21,48.14,42,.22,1.13.39,2.25.52,3.38a48.33,48.33,0,0,1-.14,12.2c-2.93,21.34-19.59,40.49-41.36,44.21a53.34,53.34,0,0,1-33.75-4.89c-2.35-1.18-4-2.49-4.15-4.77,0-.12,0-.24,0-.36a77.63,77.63,0,0,1-5.81,21.35c1.15-1.19,2.47-1.15,4.74-.15,13.13,5.74,26.69,8.2,41.09,5.59a68.77,68.77,0,0,0,56.13-60.25A68.12,68.12,0,0,0-265.27,136.57Zm-95.79,48a4.63,4.63,0,0,0-.09.49c0-.13,0-.26.08-.4a.09.09,0,0,1,0-.05Z" transform="translate(534.28 -77.58)"/></svg>