<svg id="Слой_1" data-name="Слой 1" xmlns="http://www.w3.org/2000/svg" viewBox="0 0 16 16"><defs><style>.cls-1{fill:#2d3e50;}</style></defs><path class="cls-1" d="M12.15.15a.48.48,0,0,1,.7,0h0l3,3a.48.48,0,0,1,0,.7h0l-10,10a.36.36,0,0,1-.16.11l-5,2A.49.49,0,0,1,0,15.69a.5.5,0,0,1,0-.38l2-5a.36.36,0,0,1,.11-.16ZM11.21,2.5,13.5,4.79,14.79,3.5,12.5,1.21Zm1.58,3L10.5,3.21,4,9.71V10h.5a.5.5,0,0,1,.5.5V11h.5a.5.5,0,0,1,.5.5V12h.29ZM3,10.68l-.1.1L1.4,14.6l3.82-1.53.1-.1A.5.5,0,0,1,5,12.5V12H4.5a.5.5,0,0,1-.5-.5V11H3.5A.5.5,0,0,1,3,10.68" transform="translate(0 0)"/></svg>