<svg id="Слой_1" data-name="Слой 1" xmlns="http://www.w3.org/2000/svg" viewBox="0 0 323.96 323.93"><defs><style>.cls-1,.cls-3{fill:#fff;}.cls-2{fill:#b6ceff;}.cls-3{stroke:#fff;stroke-miterlimit:10;stroke-width:4px;}</style></defs><path class="cls-1" d="M-236.75,260.82c-3.58,4.48-7,9.11-10.77,13.39-28.78,32.47-65,49.2-108.3,49.71C-422.41,324.7-482.62,277-496,211.13c-12.24-60.26,7.47-109.56,56-147.31,1.18-.91,2.32-1.88,3.48-2.82.47-.11.9-.26.9-.86l0,0c1.25.14,2.07-.73,3-1.32a144.59,144.59,0,0,1,43.75-18.4c13.16-3.2,26.49-4,39.95-3.63a117.25,117.25,0,0,1,27.29,4c58.1,16.51,93.89,54.2,106.82,113.3,1.37,6.24,1.91,12.66,2.84,19-.78,1.38-.52,2.86-.49,4.33.67,27.27-6.15,52.56-19.92,76.05-1.23,2.1-3.16,3.87-3.46,6.47l0,0C-236.47,259.9-236.63,260.34-236.75,260.82ZM-356.1,292.05c61.32.11,111.61-50,111.9-111.39S-294.08,68.74-355.68,68.48c-61.42-.26-111.94,50-112.07,111.57S-417.66,291.94-356.1,292.05Z" transform="translate(499.55 0)"/><path class="cls-2" d="M-235.89,259.94c.3-2.6,2.23-4.37,3.46-6.47,13.77-23.49,20.59-48.78,19.92-76.05,0-1.47-.29-2.95.49-4.33a20.4,20.4,0,0,0,1.42-3.4c2.53-11.74,3.76-23.54,2.6-35.6-3.16-32.81-17.64-59.52-43.78-79.37-28.14-21.36-59.87-27.59-94.32-19.55-1,.24-2.74-.3-2.87,1.65-13.46-.34-26.79.43-39.95,3.63a144.59,144.59,0,0,0-43.75,18.4c-.92.59-1.74,1.46-3,1.32,2.76-5.37,6.89-9.72,11-14.05C-400.6,20.43-371.13,5-336.06,1c74.42-8.57,142.79,39.91,157.25,113.73,11.46,58.53-7.93,106.93-54.82,144.08C-234.29,259.31-234.9,260-235.89,259.94Z" transform="translate(499.55 0)"/><path class="cls-1" d="M-435.62,60.14c0,.6-.43.75-.9.86Z" transform="translate(499.55 0)"/><path class="cls-1" d="M-236.75,260.82c.12-.48.28-.92.9-.91Z" transform="translate(499.55 0)"/><path class="cls-3" d="M-354.32,109.19c2.53.54,5.1.77,7.63,1.34a33.93,33.93,0,0,1,26.37,31.89c.19,6.87-2,13.09-5.47,18.91a3.21,3.21,0,0,0-.79,1.7h10.4c1.3,0,2.6,0,3.89,0a7.12,7.12,0,0,1,7.07,7.08,7.13,7.13,0,0,1-7.09,7.08c-3.37.07-6.75,0-10.13,0h-16.38a2.51,2.51,0,0,0-1.68.41q-7,5.31-14.1,10.56c-.19.14-.35.3-.81.68h42.51c4.15,0,7,2.39,7.59,6.22a7.09,7.09,0,0,1-6.24,7.92c-.69.06-1.39,0-2.08,0q-27.27,0-54.55,0a2.1,2.1,0,0,0-2.15,1.27c-4.6,8.5-4.35,16.84.95,24.9,2.47,3.75,6.27,5.8,10.56,6.89,7.5,1.89,14.86.86,22.15-1.25,2.72-.79,5.27-2,7.89-3a7.53,7.53,0,0,1,10.22,6.09,5.48,5.48,0,0,1-2.81,5.87,52,52,0,0,1-10.34,4.3,61.38,61.38,0,0,1-21.84,3.19c-7.39-.36-14.34-2.2-20.35-6.72a33.16,33.16,0,0,1-13.47-24.07,38.89,38.89,0,0,1,1.94-16.26c.1-.3.17-.61.29-1.07-.54,0-1-.07-1.5-.08-4.39,0-8.79.08-13.18,0a7,7,0,0,1-5.84-10.74,7,7,0,0,1,6.42-3.42c7,0,14,0,21,0a3,3,0,0,0,2.5-1.07,78.28,78.28,0,0,1,10.86-9.46,3.1,3.1,0,0,0,1.18-1.14h-1.56q-16.93,0-33.87,0c-4.06,0-6.92-2.4-7.48-6.17a7.07,7.07,0,0,1,6.34-8c.64-.06,1.29-.05,1.94-.05q25.89,0,51.77,0a3.08,3.08,0,0,0,2.42-1c3.77-3.83,7-8,8.7-13.19A18.63,18.63,0,0,0-343.74,127c-5.9-3.52-12.34-4.23-19-3.55a44.93,44.93,0,0,0-15.76,5c-2.85,1.44-5.59,1.53-8.19-.52-3.56-2.8-4.74-9,1.2-11.88a66,66,0,0,1,23.17-6.68,8.13,8.13,0,0,0,1.07-.22Z" transform="translate(499.55 0)"/></svg>