<svg id="Слой_1" data-name="Слой 1" xmlns="http://www.w3.org/2000/svg" viewBox="0 0 257.33 264.88"><defs><style>.cls-1{fill:#fff;stroke-miterlimit:10;stroke-width:2px;}.cls-1,.cls-3{stroke:#fff;}.cls-2,.cls-3{fill:none;stroke-linecap:round;stroke-linejoin:round;stroke-width:19px;}.cls-2{stroke:#b6ceff;}</style></defs><path class="cls-1" d="M-683.62,71.93c2.52.53,5.1.76,7.63,1.33a33.93,33.93,0,0,1,26.36,31.89c.19,6.87-2,13.09-5.46,18.91a3.25,3.25,0,0,0-.79,1.7h10.4c1.29,0,2.59,0,3.88,0a7.12,7.12,0,0,1,7.07,7.09,7.11,7.11,0,0,1-7.08,7.07c-3.38.07-6.76,0-10.14,0h-16.37a2.53,2.53,0,0,0-1.69.41c-4.68,3.55-9.4,7-14.1,10.57-.18.13-.35.29-.81.68H-683q20.4,0,40.8,0c4.16,0,7,2.39,7.59,6.23a7.09,7.09,0,0,1-6.24,7.91c-.69.06-1.39.05-2.08.05q-27.27,0-54.55,0a2.09,2.09,0,0,0-2.15,1.26c-4.6,8.5-4.35,16.85.95,24.9,2.47,3.75,6.27,5.81,10.56,6.89,7.51,1.89,14.87.86,22.16-1.25,2.71-.79,5.26-2,7.88-3a7.54,7.54,0,0,1,10.23,6.09,5.48,5.48,0,0,1-2.81,5.87,52.34,52.34,0,0,1-10.35,4.3A61.14,61.14,0,0,1-682.85,214c-7.39-.36-14.35-2.19-20.36-6.72a33.15,33.15,0,0,1-13.46-24.06A38.7,38.7,0,0,1-714.74,167c.1-.31.17-.62.3-1.08-.55,0-1-.07-1.5-.07-4.4,0-8.79.07-13.19,0A7,7,0,0,1-735,155a7,7,0,0,1,6.42-3.41c7,0,14,0,21,0a3,3,0,0,0,2.5-1.07,77.77,77.77,0,0,1,10.87-9.47A3.15,3.15,0,0,0-693,140h-1.56q-16.92,0-33.86,0c-4.07,0-6.93-2.39-7.48-6.17a7.07,7.07,0,0,1,6.33-8c.65,0,1.3,0,1.94,0q25.89,0,51.77,0a3.09,3.09,0,0,0,2.43-1c3.76-3.83,7-8,8.7-13.18A18.65,18.65,0,0,0-673,89.76c-5.9-3.52-12.34-4.22-19-3.54a44.78,44.78,0,0,0-15.76,5c-2.85,1.45-5.59,1.53-8.18-.51-3.57-2.81-4.74-9,1.19-11.89a66,66,0,0,1,23.17-6.67,10.34,10.34,0,0,0,1.08-.22Z" transform="translate(801.81 5.35)"/><path class="cls-2" d="M-589.5,190.8A106.69,106.69,0,0,0-554,111.18a107,107,0,0,0-107-107,107,107,0,0,0-95.78,59.23" transform="translate(801.81 5.35)"/><circle class="cls-3" cx="116.53" cy="148.35" r="107.03"/></svg>