<svg id="Слой_1" data-name="Слой 1" xmlns="http://www.w3.org/2000/svg" viewBox="0 0 14 16"><defs><style>.cls-1{fill:#2d3e50;}</style></defs><path class="cls-1" d="M6.5,1h3a.5.5,0,0,1,.5.5v1H6v-1A.5.5,0,0,1,6.5,1M11,2.5v-1A1.5,1.5,0,0,0,9.5,0h-3A1.5,1.5,0,0,0,5,1.5v1H1.5a.5.5,0,0,0,0,1H2l.85,10.66a2,2,0,0,0,2,1.84h6.22a2,2,0,0,0,2-1.84L14,3.5h.54a.5.5,0,0,0,0-1Zm2,1-.85,10.58a1,1,0,0,1-1,.92H4.89a1,1,0,0,1-1-.92L3,3.5Zm-7.49,1A.5.5,0,0,1,6,5l.5,8.5a.5.5,0,0,1-1,.06L5,5a.5.5,0,0,1,.47-.53Zm5.06,0A.5.5,0,0,1,11,5h0l-.5,8.5a.5.5,0,1,1-1,0v0L10,5a.5.5,0,0,1,.53-.47M8,4.5a.5.5,0,0,1,.5.5v8.5a.5.5,0,0,1-1,0V5A.5.5,0,0,1,8,4.5" transform="translate(-1 0)"/></svg>